<?xml version="1.0" encoding="UTF-8" standalone="no"?>
<svg
   xmlns:dc="http://purl.org/dc/elements/1.1/"
   xmlns:cc="http://creativecommons.org/ns#"
   xmlns:rdf="http://www.w3.org/1999/02/22-rdf-syntax-ns#"
   xmlns:svg="http://www.w3.org/2000/svg"
   xmlns="http://www.w3.org/2000/svg"
   viewBox="0 0 188.976 23.299067"
   height="23.299067"
   width="188.976"
   xml:space="preserve"
   id="svg2"
   version="1.1"><metadata
     id="metadata8"><rdf:RDF><cc:Work
         rdf:about=""><dc:format>image/svg+xml</dc:format><dc:type
           rdf:resource="http://purl.org/dc/dcmitype/StillImage" /></cc:Work></rdf:RDF></metadata><defs
     id="defs6"><clipPath
       id="clipPath18"
       clipPathUnits="userSpaceOnUse"><path
         id="path16"
         d="M 0,17.474 H 141.732 V 0 H 0 Z" /></clipPath></defs><g
     transform="matrix(1.3333333,0,0,-1.3333333,0,23.299067)"
     id="g10"><g
       id="g12"><g
         clip-path="url(#clipPath18)"
         id="g14"><g
           transform="translate(36.2017,12.9297)"
           id="g20"><path
             id="path22"
             style="fill:#fff;fill-opacity:1;fill-rule:nonzero;stroke:none"
             d="m 0,0 c 0,2.067 -0.76,3.351 -2.441,4.035 -1.28,0.52 -3.264,0.51 -5.554,0.51 h -7.487 v -16.143 c 0,-0.735 0.599,-1.332 1.334,-1.332 h 3.134 V 2.325 h 3.019 c 1.772,0 3.498,-0.05 3.498,-2.556 0,-1.927 -1.291,-3.756 -4.718,-4.423 l 4.447,-7.371 c 0.341,-0.562 0.948,-0.905 1.607,-0.905 h 4.319 l -5.283,7.698 C -1.906,-4.569 0,-2.738 0,0" /></g><g
           transform="translate(136.4486,7.6976)"
           id="g24"><path
             id="path26"
             style="fill:#fff;fill-opacity:1;fill-rule:nonzero;stroke:none"
             d="m 0,0 c 2.222,0.663 4.123,2.494 4.123,5.232 0,2.067 -0.757,3.351 -2.438,4.035 -1.278,0.52 -3.265,0.51 -5.554,0.51 h -7.485 V -6.366 c 0,-0.735 0.594,-1.332 1.331,-1.332 h 3.135 V 7.557 h 3.019 c 1.767,0 3.499,-0.05 3.499,-2.556 0,-1.927 -1.29,-3.756 -4.72,-4.423 l 4.45,-7.371 c 0.339,-0.562 0.946,-0.905 1.604,-0.905 h 4.32 z" /></g><g
           transform="translate(44.7973,7.043)"
           id="g28"><path
             id="path30"
             style="fill:#fff;fill-opacity:1;fill-rule:nonzero;stroke:none"
             d="M 0,0 2.918,8.032 6.108,0 Z M 5.499,10.431 H 1.429 L -5.515,-7.043 h 1.66 c 0.793,0 1.499,0.498 1.765,1.243 l 1.283,3.582 h 7.796 l 1.45,-3.642 c 0.283,-0.712 0.978,-1.183 1.744,-1.183 h 3.533 L 7.243,9.246 C 6.956,9.958 6.265,10.431 5.499,10.431" /></g><g
           transform="translate(76.4524,3.2252)"
           id="g32"><path
             id="path34"
             style="fill:#fff;fill-opacity:1;fill-rule:nonzero;stroke:none"
             d="m 0,0 -9.11,13.423 c -0.349,0.518 -0.931,0.826 -1.553,0.826 h -4.404 V -3.225 h 2.507 l -0.293,14.203 9.085,-13.379 c 0.351,-0.516 0.933,-0.824 1.555,-0.824 H 2.22 v 17.474 h -2.707 z" /></g><g
           transform="translate(96.4848,4.5054)"
           id="g36"><path
             id="path38"
             style="fill:#fff;fill-opacity:1;fill-rule:nonzero;stroke:none"
             d="m 0,0 c -0.11,-1.08 -0.952,-2.286 -2.327,-2.286 h -5.779 v 13.035 h 5.779 C -0.952,10.749 -0.11,9.543 0,8.463 0.103,7.475 0.103,0.985 0,0 M -2.327,12.969 H -12.57 V -3.174 c 0,-0.735 0.598,-1.331 1.331,-1.331 h 8.912 c 5.463,0 6.868,2.159 6.868,8.734 0,6.576 -1.405,8.74 -6.868,8.74" /></g><g
           transform="translate(110.2609,17.4743)"
           id="g40"><path
             id="path42"
             style="fill:#fff;fill-opacity:1;fill-rule:nonzero;stroke:none"
             d="m 0,0 h -4.468 v -16.142 c 0,-0.735 0.597,-1.332 1.336,-1.332 H 9.139 c 1.032,0 1.875,0.836 1.875,1.873 v 0.739 L 0,-15.205 v 6.108 h 5.748 c 1.037,0 1.877,0.842 1.877,1.877 v 0.739 L 0,-6.789 v 4.569 h 9.139 c 1.032,0 1.875,0.841 1.875,1.873 v 0.343 L 0,-0.004 Z" /></g><g
           transform="translate(8.2611,2.2196)"
           id="g44"><path
             id="path46"
             style="fill:#fff;fill-opacity:1;fill-rule:nonzero;stroke:none"
             d="m 0,0 h -3.795 v 13.035 h 3.017 c 1.775,0 3.501,-0.05 3.501,-2.556 0,-0.777 -0.26,-1.4 -0.623,-1.89 C 1.545,7.894 0.475,7.857 -0.458,7.846 -1.654,7.83 -2.282,7.848 -2.282,7.848 c 0,0 -0.229,-1.701 1.477,-2.027 C 0.768,5.525 2.428,5.885 3.079,4.396 3.248,3.998 3.355,3.551 3.355,3.035 3.355,0.531 1.772,0 0,0 m 5.212,6.969 c 0.854,0.57 2.007,1.691 2.007,3.741 0,2.067 -0.756,3.351 -2.441,4.035 -1.282,0.52 -3.269,0.51 -5.556,0.51 H -8.261 V -0.888 c 0,-0.735 0.597,-1.332 1.332,-1.332 h 6.785 c 2.292,0 4.069,0.077 5.349,0.595 1.681,0.686 2.645,2.009 2.645,4.433 0,2.098 -1.119,3.374 -2.638,4.161" /></g></g></g></g></svg>